<svg id="Lag_1" data-name="Lag 1" xmlns="http://www.w3.org/2000/svg" viewBox="0 0 462.43 219.75"><defs><style>.cls-1{fill:#fff;}.cls-2{isolation:isolate;}</style></defs><title>kroppensdag</title><path class="cls-1" d="M387.08,187.43c-5.12.86-2.92,7.72-10.15,9.85-3.72,0-10.21.37-16.64-.1a46.94,46.94,0,0,0-21.56,3.49,39.55,39.55,0,0,1-27.5,1.54c-4.48-1.31-10.18,4.76-14.6-1.48-3.28,3.67-6.69,4.53-11.27,1.71-3.62-2.24-7.83,4.05-10.75,1.19-4.27-4.18-7.09.76-10.62.32-4-.5-7.39-3.43-12.25-.47-3.2,1.94-8.56,0-12.89.46-4.59.49-9.52-1.94-14,2.24-.88.83-5.73-2.94-9.56-2.43-3.22.44-6.55,0-9.83.11-3.66.1-7.75-1.11-10.21,3-2.35-3.27-4.66-2.79-7,.06-2.51-4.77-4.75-.21-7.2,0-6,.51-12.2,1.07-18-.1-5.35-1.07-9.79,4.89-15.54.48-3.89-3-7.15,3.86-11.55,3.08l-3.55-3.31c-17.07,5.66-35.42,6-52.51,12.32-2-3.07-7.77-1.29-9.3-5.83-10.43,4.86-10.43,4.86-36.17-6.47-3.25-2.85-2.53-7.64-4.41-8.81-3-7,5.33-8.33,2.31-12.87,22.27-5.5,41.15-17.28,63.24-21.67-3.8-3.91-8.51-3.19-11-7.55-8.47,6.71-19.22,3.41-26.43,10.5-10.06-1.9-16.25,9.68-27.1,7.42L19.84,185.36C12.39,181,11.92,170.52,0,171.43c9.32-6.55,10.25-15.28,18.65-19.86l9.23-.51,5.9-5.9c11.61-.43,20.48-3,28.64-8.69l-42.79-36c6.41-7.66,7-16.73,8.14-28.16,2.24-3.19,6.56-7.53,12.38-6.79L27.62,53c13.6-13.79,29.26-17.18,44.92-19.67a82.64,82.64,0,0,0,28.35-10c9.61,2.47,19.27-5.92,30.11-3.3-.25-3.23,2-3.25,4.22-3.28,11.09-.16,22.15.55,33.08-3,3.38-1.1,7.09-4.54,12.22-.73a8.12,8.12,0,0,0,11.25-2.35,8,8,0,0,0,.88-1.78l7,5.2c4.88-6.22,13.27-1.4,18.58-4.81,5-3.22,6.89,2.65,10.92,1.13,3.26-1.22,5.61-4.77,10-3.72,2.45.59,3.43,2.32,4.77,3.18,10.87-7.89,24.84,2.41,35-6.79l5.45,3.81c5.1-1,10.11-7.33,15.38-.31,4.83-4.71,10.94-2.3,16.5-3s12,2.65,16.59-3.19c1.2,1.07,2.24,2.47,3.62,3.17,4,2,7.68-3.38,10.94-1.49C352,4.7,355.16,4.36,358.8.85a4.77,4.77,0,0,1,4.55-.43c6.5,4.59,13.47-3.49,19.81,1a23.53,23.53,0,0,1,2.32,2.14c3.9-4.29,7.35-3.44,12.57-1.18,3.28,1.41,8.91-5.08,13.25.9,4.1-4.81,7.84,2.34,11.85.36a5.09,5.09,0,0,1,1.71,3.7,5.07,5.07,0,0,1-4,4.32,8.66,8.66,0,0,1-2.49.06,5.33,5.33,0,0,0,2.41.26c3.13.25,4,3,5.61,4.79.38.92.75,1.84,1.27,3.15l4.15-3.35,4.67,4.73c-2.94,3.89-6.93.33-9.73,3.32V33c11-.77,20.48,3.55,29.19,10,.51,4,4.82,5.18,6.49,8.73l-5.74,2c-.71,2.72,3.84,3.39,2.33,6.8-2.18,2.91-8.07,3.15-8,8.79-2.86-4.69-7.45-3.11-11.53-3.32-2.56,2.6-5.87,1.18-8.69,1.64,2.82.46,6.13-1,8.69,1.64,4.67,0,2.38,3.4,3.5,4.73-3.69,3.59-5.59,1.47-7.7-.73-2.44-1.13-2.61,2.53-4.54,2.56a55.12,55.12,0,0,0-18.24,2.82c-5.3,1.86-11.87,3.52-18.26.72-1.9-.83-6.74-2.39-7.29,3a5.94,5.94,0,0,1-3.5,1.53c-2.33.09-4.69,0-6.84.09h.59c1.81.12,3.44.06,5.08.31l1.43,1.34c-.16,3.34,3.33,4,4.69,6.56,4.27,0,10.48-1.77,12.52.39,3.71,3.93,7.79-1.5,11.49,2.51,2,2.21,9.85-1.16,12.22,1,3.72,3.43,8.54,1,11.52,4.12,2.83,6.75-7.81,3-6.54,8.62,1.27,4.85,9.12,2.52,9.38,8.53-2.26,2.42-5.24,0-7.81,1.53C430,124,425.64,127.23,422,131c-.39,0-1,.1-1.13-.09-1.76-2.58-5.11-4-7-2.47-7.59,6.1-17.95.18-26,5.69L385.62,132c-19.89,4.32-39.4,8.61-59,12.63-1,.2-2.39-2-3.6-3-1.12,1-2.32,3-3.47,3-15.87-.34-30.5,7-46.24,7.31-.41,0-.78,1.75-1.16,2.68a11,11,0,0,1-9.17,2.17c.07.06-1.13,1-1.08.92a5.44,5.44,0,0,1,2.94,0,13.77,13.77,0,0,0,4.57-1,2.09,2.09,0,0,1,2.71,1.15l0,.09c2.81-.63,3.08,2.76,4,2.86,4.53,1.62,5.65-1.84,8.48-3.11,3.56-.47,7.29,7.62,11.63.74,4,2.08,7.21,4.74,12.58,1.25,2.69-1.75,7.94,2.13,12.51,1.65,4.84-.51,9.77-.11,14.66-.11h42.82l4.92,4.92c0,3.67-.13,7.94.06,12.2a2.53,2.53,0,0,0,2.37,2.67,2.75,2.75,0,0,0,.85-.1C389.06,183.05,388.89,185.24,387.08,187.43Z" transform="translate(0 -0.01)"/><path class="cls-1" d="M265.62,161.17c-3.49-.48-5.66-4.89-9.85-3.28-.21-2.92,1.69-3.29,3.93-3.29h12.49v3.29H268.9C267.82,159,266.6,160,265.62,161.17Z" transform="translate(0 -0.01)"/><path class="cls-1" d="M419.91,10.16c2.27.09,3.37-1,3.28-3.28l1.6-1.36,2,.68a6.55,6.55,0,0,1,1.67,3.72,5.8,5.8,0,0,1-2,3.53v3.28l-6.56-3.28q-1.62-1.09-1.08-2.19C419.19,10.53,419.55,10.16,419.91,10.16Z" transform="translate(0 -0.01)"/><path class="cls-1" d="M426.47,13.45V10.16a5.62,5.62,0,0,0,1.74-2.74l1.55-.54c2,.38,4.24-.92,6,1.1C434.12,12.24,431,14.06,426.47,13.45Z" transform="translate(0 -0.01)"/><path class="cls-1" d="M387.08,187.43v-6.57h6.45c-1.74,3.77-3,6.59-4.36,9.4C387.39,190.12,386.9,189,387.08,187.43Z" transform="translate(0 -0.01)"/><path class="cls-1" d="M439.61,69.25c-3.09-.4-6.38,1-10-1.5,3.18-2.85,6.81-1.36,10-1.78Z" transform="translate(0 -0.01)"/><path class="cls-1" d="M426.47,6.88h-3.28V3.6h3.28q1.26,1.1.84,2.19C427,6.52,426.75,6.88,426.47,6.88Z" transform="translate(0 -0.01)"/><path class="cls-1" d="M426.47,6.88V3.6c2.28-.09,3.37,1,3.29,3.28a2.14,2.14,0,0,1-3,.26A3.19,3.19,0,0,1,426.47,6.88Z" transform="translate(0 -0.01)"/><path class="cls-1" d="M456,43a2.29,2.29,0,0,1,1.57-2.83,2.17,2.17,0,0,1,.43-.08c.25-.06,1,.71,1,1a2.28,2.28,0,0,1-2.54,2A2.52,2.52,0,0,1,456,43Z" transform="translate(0 -0.01)"/><path class="cls-1" d="M26,51.2c-1.08,1.53-2.18,1.53-3.25,0C23.79,49.67,24.89,49.67,26,51.2Z" transform="translate(0 -0.01)"/><path class="cls-1" d="M383.8,82.38h3.28q.14,3.41-3.28,3.29-1.62-1.1-1.08-2.19C383.08,82.75,383.44,82.38,383.8,82.38Z" transform="translate(0 -0.01)"/><path class="cls-1" d="M32.57,120.13c1.07-1.53,2.17-1.53,3.24,0C34.74,121.66,33.64,121.66,32.57,120.13Z" transform="translate(0 -0.01)"/><path class="cls-1" d="M52.23,218.62c-1.08,1.52-2.17,1.52-3.25,0C50.06,217.09,51.15,217.09,52.23,218.62Z" transform="translate(0 -0.01)"/><path class="cls-1" d="M374,85.67c-2.72-.56-3.07,2.53-5.19,3l-4.51-4.51c2.81-3.15,6.52-1.26,9.7-1.79q1.62,1.09,1.08,2.19T374,85.67Z" transform="translate(0 -0.01)"/><ellipse class="cls-1" cx="378.88" cy="84.01" rx="6.96" ry="2.32"/><path class="cls-1" d="M419.91,10.16v3.29c-2-.4-4.3,1-6.11-1.19C414.73,8.44,417.9,10.86,419.91,10.16Z" transform="translate(0 -0.01)"/><path class="cls-1" d="M131,20a2.28,2.28,0,0,1,2.89,1.44A2.14,2.14,0,0,1,134,22c.06.25-.71,1-1,1a2.3,2.3,0,0,1-2.11-2.46A2.59,2.59,0,0,1,131,20Z" transform="translate(0 -0.01)"/><path class="cls-1" d="M137.62,21.65c1.07-1.53,2.16-1.53,3.23,0C139.78,23.18,138.69,23.18,137.62,21.65Z" transform="translate(0 -0.01)"/><path class="cls-1" d="M121.21,24.93c1.07-1.53,2.16-1.53,3.23,0C123.37,26.47,122.28,26.47,121.21,24.93Z" transform="translate(0 -0.01)"/><path class="cls-1" d="M255.76,157.9a2.3,2.3,0,0,1-1.57,2.84,2.2,2.2,0,0,1-.37.07c-.26.06-1-.71-1-1a2.28,2.28,0,0,1,2.55-2A1.8,1.8,0,0,1,255.76,157.9Z" transform="translate(0 -0.01)"/><path class="cls-1" d="M265.62,161.17c-.08-2.27,1-3.37,3.28-3.28C269,160.16,267.89,161.25,265.62,161.17Z" transform="translate(0 -0.01)"/><path class="cls-1" d="M426.47,6.88h3.29c.08,2.27-1,3.37-3.29,3.28Z" transform="translate(0 -0.01)"/><g class="cls-2"><path d="M82.46,49.33h.19c1.2.22,1.8.45,1.78.7s.34.32,1.06.57a5.75,5.75,0,0,1,2.15,1.66l0,.19q-1,2.58-2.06,6.7a13.22,13.22,0,0,0-1.27,4,79,79,0,0,1,12.54-4.43A9,9,0,0,1,99.64,58h.1c.09,0,.18.12.25.31l0,.28A13.31,13.31,0,0,1,96.62,60V60l.28,0A.08.08,0,0,1,97,60l0,.09c0,.13-.06.18-.19.17l-.44-.12c-.61.17-1,.42-1.08.73-.09,0-.2.07-.3.26v.07l.09,0a3.41,3.41,0,0,0,1.31-.35l.63,0v.19l.17,0L97,60.81h.07a.94.94,0,0,1,.51.43A18.17,18.17,0,0,1,100,60.7l.14.28-.12.44c.07,0,.09.06.07.12a.87.87,0,0,1-.46.24l0,.07c.31.07.46.18.45.32l0,.29c-1,.32-1.57.49-1.61.49V63h.09l1.22-.35.37.05a.17.17,0,0,1,.17.18.69.69,0,0,1-.68.31v.09c0,.13,0,.2.16.21l.28-.16h.1c.14.33.25.49.33.49l0,.19q-4.92,1.59-5,2.86a1.72,1.72,0,0,1-.73.77c.13,0,.18.1.16.19V68c0,.08-.32.33-1,.75a9.54,9.54,0,0,1-2.46,1.81,56,56,0,0,1-7.52,4.12,1.52,1.52,0,0,1-1,.47,13.06,13.06,0,0,0,1.83,3.12c1.07,2,1.82,3.56,2.28,4.59.72,2.21,1.31,3.52,1.78,3.94l.65.89c0,.13-.08.18-.21.16-.72-.82-1.07-1.32-1-1.47h-.1c0,.11-.08.16-.21.16a8.59,8.59,0,0,0,.89,1.36V88c0,.12-.07.17-.18.16s-.09-.2-.26-.31v.1c0,.06.08.26.3.58v.1h-.09L87,86.88l-.21.25,1,1.29c0,.13-.07.18-.18.17l-1.46-1.5c0-.08-.11-.24-.4-.49l-.09,0a2.92,2.92,0,0,1,.68,1.55c.19,0,.34.45.45,1.31l-.19.07a11,11,0,0,0-1.27-1.38v.09l1.17,2.3-.18.09a13.79,13.79,0,0,0-1.15-1.5h-.1l0,.1a6.11,6.11,0,0,0,.82,1.36l0,.18-.1,0a3,3,0,0,1-.82-1.08l-.18.07L84,88.82l0,.1.07.18-.18.07a1.35,1.35,0,0,1-.52-.21l0,.17a18.69,18.69,0,0,1,1.36,2.43l-.19.07q-5.13-5.47-6.14-6.79a52.08,52.08,0,0,1-2.81-4.48l-.19-.12A39.24,39.24,0,0,1,73,83.53Q70.28,87.63,70,87.6l.07.19a.17.17,0,0,1-.21.17c0-.07,0-.1-.07-.1a.09.09,0,0,1-.1.1l.07.18,0,.1a1.71,1.71,0,0,0-.54,1.05c-.23,0-.67.87-1.31,2.46-.22.66-.38,1-.47,1h-.09c-.16,0-.25-.3-.29-.86,0,0,.18-.58.52-1.6l-.23-.49,0-.38A5,5,0,0,0,68,87.79s.31-.48.84-1.41l.05-.35h-.09a27,27,0,0,0-2.4,5.11l-.18.1c0-.44-.14-.68-.49-.71a5.76,5.76,0,0,1-.26.73l-.17,0,.07-1a14.9,14.9,0,0,1,.78-2.51l-.17,0a15.64,15.64,0,0,1-1.08,2.67l-.25,0v-.1c.25-.84.38-1.29.4-1.33l0-.54-.19,0c-.48,1.32-.78,2-.91,2l-.07-.19,0-.19a11.62,11.62,0,0,1,1-3.14v-.09h-.09a24.28,24.28,0,0,0-1.27,3l-.19,0,0-.28h-.1c0,.19-.08.27-.21.26q-.54-.15-.51-.33.21-2.3,5-10.5,3.43-6.66,6-12.45,2-4.22,3.82-8.76a61.12,61.12,0,0,1,3.5-7.34,4.4,4.4,0,0,0,.51-.77A2.37,2.37,0,0,1,82.46,49.33Zm-16,37.41,0,.37h.09l0-.35Zm20.93-1.57,0,.09a2.18,2.18,0,0,1,.3.77h.1v-.09a1.66,1.66,0,0,1-.28-.75ZM94.72,60.6v.1l.19,0a.44.44,0,0,1,.28-.07v-.09l-.19,0A.8.8,0,0,1,94.72,60.6Zm.52,6.85.09,0,0,.09c0,.11-.07.17-.19.17l-.09,0v-.1A.2.2,0,0,1,95.24,67.45Zm1.92-4.15,0,.19a2.44,2.44,0,0,1,1-.28L98,63A2.2,2.2,0,0,1,97.16,63.3Zm2.18-1.83v.09h.09l.47,0v-.19h-.09A1.35,1.35,0,0,1,99.34,61.47Z" transform="translate(0 -0.01)"/><path d="M106.84,52.19h.51q2,0,8.72,2.25a17.91,17.91,0,0,1,4.31,1.34,9.66,9.66,0,0,1,4.22,1,.68.68,0,0,1,.31-.1,19.15,19.15,0,0,1,2.34.71v.32H127l-.31-.21h-.09a2.59,2.59,0,0,0,1.73,1h.12c0-.21,0-.32.09-.32,1.79.73,2.68,1.32,2.68,1.75a4.19,4.19,0,0,1,2.15,1.95c.1,0,.23.17.4.52v.21h-.09l-1.13-1.34v.21h-.12A8.75,8.75,0,0,1,131,60q-1-.42-2-.93v.21a7,7,0,0,1,2.13,1.45.11.11,0,0,1,.12-.12c0,.27.4.75,1.21,1.43v.12h-.18v.52a.63.63,0,0,0,.61.39.08.08,0,0,1,.09-.09l.12.21a1,1,0,0,1-.42.1v.09q0,.16.42.42,0-.13.3-.3a4.08,4.08,0,0,1,.31,1,.62.62,0,0,0-.1.3h.1l.4-.51c.2,0,.34.3.42.91h-.21V65h-.1a10.42,10.42,0,0,1-.3,1.85H134v.21c-.21,0-.31.07-.31.21a.64.64,0,0,1,.12.31c-.11,0-.25.13-.42.4a.1.1,0,0,1,.11.11,4.5,4.5,0,0,0-.93.92l.11.21c-.22,0-.56.34-1,1a13.17,13.17,0,0,1-2.58,1.55L129,72v.12c.34,0,.52.06.52.19-1.24.39-1.86.77-1.86,1.15a4.14,4.14,0,0,0-1.54.82,3.81,3.81,0,0,1-1.64.7c0,.22-.38.46-1.13.73h-.21l-.21-.1q0,.83-6.35,2l-.21.21a29.78,29.78,0,0,1,2.06,3.28l.3-.21a2.45,2.45,0,0,0,.4.64h-.3a3.5,3.5,0,0,0,.82,1.73h-.1L121,85.35c0,.13-.06.19-.18.19a1.83,1.83,0,0,1-.52-.7l-.42-.12V85a17.1,17.1,0,0,0,2.67,4.52c.27.28.4.48.4.61h.21V90h.21l.42.31a.64.64,0,0,1,.31-.12,1,1,0,0,1,.3.51h.1q0-.39.3-.39c.25,0,.52.27.82.82.39.12.7.57.94,1.33h.21v-.21c.12,0,.26.34.4,1v1.13c0,.34-.13.54-.4.61a2.68,2.68,0,0,0,.3.93.78.78,0,0,1-.3.1v.09l.19.73h-.31l-.21-.1c0,.14-.06.22-.19.22h-.11l-.31-.22v.1l.21.3v.21h-.09l-.33-.21h-.09l.21.31v.11c0,.15-.07.22-.21.22l.21.39c-.24,0-.48.25-.73.73,0-.08-.27-.25-.82-.52v.22l.31.49v.12a.76.76,0,0,0-.61-.22.68.68,0,0,1-.1.31l-.21-.09h-.11l.11.21v.09h-.11c-.35-.41-.58-.61-.71-.61a1.11,1.11,0,0,1-.51.19,3.52,3.52,0,0,0-1-.31l.51.64h-.09a5.35,5.35,0,0,1-1.85-1.76v-.52h-.12l-.19.12c-.19,0-.57-.48-1.15-1.45a9.22,9.22,0,0,1-1.83-2.25c0-.27-.48-1-1.45-2.07l-.4-.09V91l.1-.19a1.05,1.05,0,0,1-.52-.3q0,.3-.21.3a24.9,24.9,0,0,0-2-3.19h-.09v.31l.09.21h-.09a37.21,37.21,0,0,1-4.64-7.2c0-.26-.11-.39-.31-.39q-5.55,7.06-7.59,7.07-2.25,1.2-2.25,2.46h-.31v-.51h-.11c0,.48-.11.73-.31.73-.61-.16-.91-.33-.91-.52h-.12l-.4.4a.64.64,0,0,1-.12-.31h-.18c0,.28-.17.43-.52.43,0-.1-.1-.2-.3-.31l-.31.19A2.83,2.83,0,0,1,92.05,88a117.75,117.75,0,0,1,9.23-16.1q1.32-1.83,5.46-8.72l2.14-3v-.12a17,17,0,0,0-2.77-1.34c-1-.61-1.52-1-1.52-1.22Q106,52.64,106.84,52.19Zm4.4,34.69a1.12,1.12,0,0,0,.52.63V87.3a.74.74,0,0,1-.21-.42Zm.94,1.75h.1a1.54,1.54,0,0,1,.6,1h-.18a2.26,2.26,0,0,0-.52-.94Zm.19-15.6q.12,0,.12.09c1.28-.33,4.32-.94,9.14-1.83a10.85,10.85,0,0,0,3.47-1.76,4.19,4.19,0,0,0,1.33-2.25c0-1.75-1.81-3.22-5.44-4.43a.58.58,0,0,1-.3.12,18,18,0,0,0-2.86-.51l-.21.09a.88.88,0,0,0-.31-.09c-.39,0-.63.51-.72,1.54a18.48,18.48,0,0,1-1.24,3.28,22.64,22.64,0,0,1-2.77,5.35Zm2.67,17v.1a2.73,2.73,0,0,0,.63,1,5,5,0,0,1,.82,1.12h.19A8.28,8.28,0,0,0,115,90.06Zm1.64,2.77V93A12.48,12.48,0,0,0,118,94.59V94c-.41-.11-.61-.28-.61-.52a.91.91,0,0,0,.09-.33l-.3-.18L117,93v-.21Zm3.92,5.25v.09q0,.21.21.21v-.3Zm.61-10.69h.3a1.18,1.18,0,0,0,.61.31V88h-.31l.12.21v.12h-.12C121.41,87.89,121.21,87.58,121.21,87.39Zm.82-.51q.47.21.51.42v.3l-.09.21c.12,0,.18.08.18.19h-.09c-.11,0-.38-.33-.82-1A.72.72,0,0,1,122,86.88Zm0,2.67v.3c0,.11.14.25.42.43h.09v-.12C122.29,89.75,122.12,89.55,122,89.55Zm.72-1.34c.75.53,1.13.85,1.13.94v.09h-.1C123.1,89.18,122.75,88.84,122.75,88.21Zm.52,2.16v.21l.3.21v-.21a.19.19,0,0,1-.21-.21Zm.82-.91q0,.3.51.3V90c0,.13-.07.19-.21.19,0-.17-.17-.28-.51-.31v-.18Q123.9,89.46,124.09,89.46Zm.09,1.33v.09c.11.29.21.43.31.43h.11v-.12C124.6,91.08,124.46,91,124.18,90.79Zm.61,0v.09c.11.29.21.43.31.43h.11C125,91,124.88,90.79,124.79,90.79ZM132.2,68.5h.18c0-.09.11-.22.33-.4v-.21C132.62,67.89,132.45,68.1,132.2,68.5Zm.82-4,.19.09v-.3A.18.18,0,0,0,133,64.52Z" transform="translate(0 -0.01)"/><path d="M156.74,52.14a17.61,17.61,0,0,1,3.49,2,3.8,3.8,0,0,1,.68,1.58c0,.5-.73,1-2.18,1.57a17,17,0,0,1-2,1.31v.16c3.89,1.24,5.83,2.28,5.83,3.14a9.78,9.78,0,0,0,1.48,1.67,2.09,2.09,0,0,0,.35,1.12l-.52,3.21a28.44,28.44,0,0,1-2.36,6,.75.75,0,0,1-.42.68v-.17H161v.35a3.74,3.74,0,0,1-.77,1.06,17.93,17.93,0,0,1-2,3.82,5.8,5.8,0,0,0-1.31,1.92c-.14,0-.43.38-.87,1.13A.8.8,0,0,0,156,83a.18.18,0,0,1,.17.19v.07H156v-.16h-.28l.1.42c-.25.06-.49.44-.71,1.15Q151.53,88,149,88.8a15.13,15.13,0,0,1-4.43,1,11.65,11.65,0,0,1-7.85-3.21,11.78,11.78,0,0,1-2.6-6.8q0-6,5.39-13.33a56.3,56.3,0,0,1,6.37-7.13A43.13,43.13,0,0,1,151.7,54,11.56,11.56,0,0,1,156.74,52.14ZM141,81.74a.63.63,0,0,0,.07.26l-.07.19.07.35a.06.06,0,0,1-.07.07c.12,1.28.38,1.92.77,1.92a2.28,2.28,0,0,0,.7.1q2.11,0,6.45-3a45.54,45.54,0,0,0,5.83-6.45,38.42,38.42,0,0,0,4.62-8.71,12.52,12.52,0,0,0,.77-3.4v-.17a20,20,0,0,0-3.23-1.31,10.14,10.14,0,0,1-1.22.09h-.16v-.09l.44-.35h-.09l-1.13.19v-.1c0-.15.26-.3.78-.44a.15.15,0,0,0-.17-.17.63.63,0,0,1-.28.1l-.07-.19c.05,0,.07,0,.07-.07h-.68a41,41,0,0,0-4.8,4.34q-6,6.44-8.09,12.46A20,20,0,0,0,141,81.74Zm14.08-21.93a.6.6,0,0,1-.07.25h.61V59.9l-.44-.09Z" transform="translate(0 -0.01)"/><path d="M191.07,52.33l.56.05q10,.87,15.57,6.18c2.4,2.68,3.57,4.48,3.49,5.42a4.58,4.58,0,0,1,.61,2.86q-.41,4.56-6.61,7.24a1.67,1.67,0,0,1-.91.4v.19l.18,0,0,.19-.47-.14a6.63,6.63,0,0,0-2,.89,7.43,7.43,0,0,1-3.08,1l-1.59.73a.12.12,0,0,0-.09-.12,33.23,33.23,0,0,1-4.55,1.24q-2.66.45-7.59.8v-.09a9.7,9.7,0,0,1-2,.18l0-.09a3.33,3.33,0,0,1-1.48.16l0-.09-.21.09-.57-.07c-.89-.07-1.46.2-1.71.82a33.9,33.9,0,0,1-5.22,5.54,15.78,15.78,0,0,1-2.14,2.5c0,.07,0,.1.07.1l-.14.49a9.15,9.15,0,0,1,.17,1.45l-.45-.33,0,.38-.21,0c-.13,0-.18-.07-.17-.19l-.21.07h-.09a2.38,2.38,0,0,0-1.36-1,3.5,3.5,0,0,1-.68-.82c-.64-.17-.94-.45-.89-.84l-.12,0c0,.21-.08.3-.21.28s-.44-.59-.63-1.59l0-.09-.4,0,0,.28h-.19l0-.58,0-.59A3.82,3.82,0,0,0,166,83.9l-.19,0c0,.18-.05.28-.12.28a.09.09,0,0,0,.07.12l-.42,1.5a.42.42,0,0,1,.07.28h-.09a1.94,1.94,0,0,1,.14.68l-.28,0a6.17,6.17,0,0,1-.07-1.36,17.94,17.94,0,0,1,1.78-5q2.34-6.39,13.55-20.41l-.17-.12c-1.28-.17-2.24-.29-2.88-.35a8.38,8.38,0,0,0-2.13.31l-.17-.31c0-.58.54-1.12,1.48-1.62q3.91-3.48,5.27-3.86C183.69,52.49,186.76,52,191.07,52.33Zm-2.65,9.23a.84.84,0,0,1,.07.29c-.25,0-.81,1.28-1.68,3.91-2.43,5.37-3.75,8-4,8l-.37.84h.09A116.29,116.29,0,0,0,198,71.27c3.64-1.19,5.54-2.76,5.72-4.71.18-2.16-1.69-3.84-5.63-5a14.13,14.13,0,0,1-2.67-.42,1.25,1.25,0,0,0-.68,0,3,3,0,0,1-.56-.14c-3.64-.33-5.49-.23-5.54.28C188.57,61.28,188.5,61.38,188.42,61.56Z" transform="translate(0 -0.01)"/><path d="M232.39,52.33l.57.05q10,.87,15.56,6.18c2.4,2.68,3.57,4.48,3.49,5.42a4.58,4.58,0,0,1,.61,2.86q-.41,4.56-6.61,7.24a1.67,1.67,0,0,1-.91.4v.19l.18,0,0,.19-.47-.14a6.63,6.63,0,0,0-2,.89,7.45,7.45,0,0,1-3.07,1l-1.6.73a.12.12,0,0,0-.09-.12,32.68,32.68,0,0,1-4.55,1.24c-1.76.3-4.3.57-7.59.8v-.09a9.7,9.7,0,0,1-2,.18l0-.09a3.33,3.33,0,0,1-1.48.16l0-.09-.21.09-.57-.07c-.89-.07-1.46.2-1.71.82a33.9,33.9,0,0,1-5.22,5.54,15.78,15.78,0,0,1-2.14,2.5c0,.07,0,.1.07.1l-.14.49a9.15,9.15,0,0,1,.17,1.45l-.45-.33,0,.38-.21,0c-.13,0-.18-.07-.17-.19l-.21.07h-.09a2.38,2.38,0,0,0-1.36-1,3.5,3.5,0,0,1-.68-.82c-.64-.17-.94-.45-.89-.84l-.12,0c0,.21-.08.3-.21.28s-.44-.59-.63-1.59l0-.09-.4,0,0,.28H207l.05-.58-.05-.59a3.82,3.82,0,0,0,.31-1.22l-.19,0c0,.18-.05.28-.12.28a.09.09,0,0,0,.07.12l-.42,1.5a.42.42,0,0,1,.07.28h-.09a1.94,1.94,0,0,1,.14.68l-.28,0a6.17,6.17,0,0,1-.07-1.36,17.94,17.94,0,0,1,1.78-5q2.34-6.39,13.55-20.41l-.17-.12c-1.28-.17-2.24-.29-2.88-.35a8.38,8.38,0,0,0-2.13.31l-.17-.31c0-.58.54-1.12,1.48-1.62q3.92-3.48,5.27-3.86C225,52.49,228.08,52,232.39,52.33Zm-2.65,9.23a.84.84,0,0,1,.07.29c-.25,0-.81,1.28-1.68,3.91q-3.63,8.05-4,8l-.37.84h.09a116.29,116.29,0,0,0,15.45-3.37c3.64-1.19,5.54-2.76,5.72-4.71.18-2.16-1.69-3.84-5.63-5a14.13,14.13,0,0,1-2.67-.42,1.25,1.25,0,0,0-.68,0,3,3,0,0,1-.56-.14c-3.64-.33-5.49-.23-5.53.28C229.89,61.28,229.82,61.38,229.74,61.56Z" transform="translate(0 -0.01)"/><path d="M289.42,52.24c.82,0,1.73.58,2.71,1.75.35,0,.52.25.52.75.09,0,.2.11.31.31s-.21.21-.61.21v.09c.48,0,.89.39,1.24,1.15v.33l-.1.21-1.05-.12a7.66,7.66,0,0,0-5.74,2.82q-1.87,1.26-9.4,3.35a64.79,64.79,0,0,1-7.2,2.51,30.3,30.3,0,0,1-2.62,5.11v.21a65.64,65.64,0,0,1,10.66-2.09,1.7,1.7,0,0,1,1.46.94c.46.56.78.84.93.84a1.07,1.07,0,0,1,.21.52q-.21,0-.21.21v.51h-.42v.21h.42v.22h-.3v.11c.4.07.61.17.61.31l-.1.21c.57.06.85.16.85.3a1.62,1.62,0,0,1-.85.12l.73.4v.21l-.09.21-1.69-.21a6,6,0,0,0-5.41,2.62A19.11,19.11,0,0,1,265,79.38H264c-.26,0-1.13-.07-2.6-.21a8.61,8.61,0,0,0-1.47,1,8.25,8.25,0,0,1-1.25,1.45v.21q8.13-2.09,11.91-2.08c.91.23,1.36.62,1.36,1.15a5.36,5.36,0,0,1,.82,1.15v.09c0,.42-.59.63-1.76.63v.12a12.57,12.57,0,0,0,1.45.19v.21H271l-.33.21h-1v.21h.1a1,1,0,0,0,.42-.09l.21.09a.08.08,0,0,0,.09-.09l1.78.21v.21h-.63v.09h.54v.21H272a5.43,5.43,0,0,1-.94-.11.84.84,0,0,1-.33.11v.1c1.89.07,2.84.22,2.84.42-.83-.06-1.42-.1-1.78-.1h-1.06c-.14,0-.21.09-.21.22h.63v.21h-1q-.21,0-.21.18h.21v.21a15.92,15.92,0,0,0-4.29,1.27,18.22,18.22,0,0,1-5.74,2.18,14.66,14.66,0,0,1-4.17.63h-1.78l-.52.12v-.12l-.21.12h-1a9.86,9.86,0,0,0-1.15.09l-.21-.09a6.22,6.22,0,0,1-.94.09,1.22,1.22,0,0,1-.94-.51V89.2a14.08,14.08,0,0,1,.94-1.67c-.28-.11-.42-.22-.42-.32a3.7,3.7,0,0,1,.42-.94V86a.65.65,0,0,1-.3-.11c-.16,0-.54.45-1.15,1.36-.11,0-.28-.22-.52-.64v-.19q.5-2.17,4.6-8.57a39.65,39.65,0,0,1,2.18-3.54,78.3,78.3,0,0,0,4.28-7.53Q260,65.3,264.76,54a4.08,4.08,0,0,1,2.2-.39q4.28.51,5.11,1.24l.64.51A42.24,42.24,0,0,1,289.42,52.24ZM269.05,83.67v.09h.42v-.09Zm1.57.3v.12h.51V84Zm1.57,1.36h.73l.51.09v.21l-1-.09h-.21Zm.3-1H273v.21h-.52Z" transform="translate(0 -0.01)"/><path d="M303.29,52.24a5.69,5.69,0,0,1,2.74.63,4.29,4.29,0,0,1,2.58,1.57,1.07,1.07,0,0,1,.38.73,13.18,13.18,0,0,1-1,2,82.8,82.8,0,0,1,1.26,16.06v.37c0,.52,0,1.35-.07,2.49h.17A29.33,29.33,0,0,1,311.45,72c.12,0,.18.07.18.16v.1a1.37,1.37,0,0,0-.25.75l2.36-4.06,1-1.36c.1,0,.28-.25.56-.75l-.09-.18v-.1c.17-.36.3-.54.38-.54a.85.85,0,0,1,.09.47.88.88,0,0,0-.28.07l.09.19-.09.19c.19,0,.28.12.28.37h.09l.17-.09-.1-.19c.18-.48.3-.72.38-.72l.19.09a8.82,8.82,0,0,0,.82-1.29l.91-1.29a.08.08,0,0,0,.09.09l-2,3.5a1,1,0,0,1-.28.54l.18.09c0-.14,1-1.73,2.86-4.78a46.79,46.79,0,0,0,2.75-4.13q.13,0,.72-.72l.1.18a6.28,6.28,0,0,0-1.1,2c.64-.92,1-1.38,1.1-1.38v.18a8.27,8.27,0,0,0-.82,1.58V61h.09a6.43,6.43,0,0,1,1.29-1.74h.09v.09a2,2,0,0,0-.37.64H323c0-.14.21-.39.63-.73h.09v.09l-.09.19a.73.73,0,0,1,.09.35,4.62,4.62,0,0,0-1,1.86l.66-.57.09.19a5.61,5.61,0,0,0-.75,1.29v.19h.1a4,4,0,0,1,.82-1.2,5.93,5.93,0,0,1,1.1-1.19h.09v.09a4.29,4.29,0,0,1-.54,1,28.78,28.78,0,0,1-2.48,4.69l-.63,1,.09.19a7.5,7.5,0,0,1-.94,1.83v.54l.19.28c-.17.44-.29.66-.35.66l-.09-.19a.78.78,0,0,0,.09-.28l-.19-.1a2.68,2.68,0,0,0-.28,1.1,1,1,0,0,1,.19.47,2.66,2.66,0,0,0-.56.45.08.08,0,0,0,.09.09,16,16,0,0,1-1.2,3.31V76h.1a6.55,6.55,0,0,1,.82-1.83c0,.3.06.45.19.45v.73l-.92,1.75.1.19c-.07.24-.19.35-.38.35v.47l-1.83,4.6a7.18,7.18,0,0,0-.91,2A55.12,55.12,0,0,1,312.29,90a26.64,26.64,0,0,0-3.4,4.5h-.28a.17.17,0,0,1-.19-.19l-.44.09c-.16,0-.25-.12-.28-.37h-.28l-.45-.07c0,.11-.06.16-.19.16l-.28-.16h-.19l.1.16c0,.13-.1.19-.28.19l-.45-.28a.17.17,0,0,1-.19.19h-.18a15.58,15.58,0,0,0-2.65-1.29,6.63,6.63,0,0,1-1.2-.73,14.4,14.4,0,0,1-.93-3.84l.09-.47V86.36l-.09-.54a.08.08,0,0,1,.09-.09c-.11-1.13-.16-1.92-.16-2.39,0-.31,0-.92.07-1.83-.11-1.86-.17-3.63-.17-5.32q0-.09-.09-.75H300a38,38,0,0,1-5,8,15.34,15.34,0,0,0-2.14,2.84q-.63,0-1.35,2.67v.56l.09.82-.19.1h-.47c-.11,0-.29-.29-.54-.85l-.18-.07c0,.11-.07.17-.19.17-.41-.55-.74-.82-1-.82a.72.72,0,0,1-.28.09,2.56,2.56,0,0,0-1.92-1.1,1.75,1.75,0,0,1-1.1-1.57V86q.27-5.07,7.89-19.38,3.78-6.61,8.82-13.76C302.72,52.45,303,52.24,303.29,52.24ZM311.92,71h.18c0,.5-.14.75-.28.75a.72.72,0,0,1-.09-.28A1.08,1.08,0,0,0,311.92,71Zm1-1.82.1.18v.19c-.24.61-.39.91-.47.91h-.07v-.18A1.55,1.55,0,0,1,312.92,69.21Zm.38-.47h.09l-.09.47h-.09A.17.17,0,0,1,313,69C313,68.94,313.11,68.85,313.3,68.74Zm2.11-3.47h.09v.16c-.53.78-1.15,1.8-1.85,3h-.16A11,11,0,0,1,315.41,65.27ZM315,67.92v.28h.1a.17.17,0,0,0,.18-.19v-.09Zm.28-.36v.07c0,.13.08.19.19.19h.19l.09-.35A1,1,0,0,1,315.31,67.56Zm.47-1.66h.07c.13,0,.19.08.19.19v.09h-.26Zm3.21,9-.09.35c.09,0,.18-.12.26-.35Zm.17-1h.19V74a.17.17,0,0,1-.19.18Zm.56,0v.35a.17.17,0,0,1-.19.19v-.35C319.55,74,319.61,73.89,319.72,73.89Zm.09-1.1V73c0,.11-.06.16-.18.16V73C319.64,72.85,319.71,72.79,319.81,72.79Zm.19-5.88c0,.12.08.19.19.19l.16-.29v-.18h-.09C320.18,66.63,320.1,66.72,320,66.91Zm1.74-1.38a8.49,8.49,0,0,1-1.39,1.94,7.17,7.17,0,0,0-.09,1c0,.12.09.19.19.19a2.73,2.73,0,0,1,.56-1,.75.75,0,0,1,.19-.53l-.19-.29c.23,0,.51-.39.82-1.19v-.09Zm-1.2.65-.09.19v.09h.28v-.09A.17.17,0,0,0,320.54,66.18Zm.19-.28.19.09.09-.37C320.92,65.62,320.82,65.71,320.73,65.9Zm.37-1.83c0,.17-.06.26-.18.26v.09h.18l.19-.25v-.1Zm.36-.47v.1a.17.17,0,0,0,.18-.19v-.09Q321.46,63.47,321.46,63.6Zm.75-1.1h.09c.08,0,.23-.18.44-.54v-.09h-.09C322.51,61.9,322.36,62.11,322.21,62.5Zm.18-1.83-.09.19V61h.09a.93.93,0,0,1,.07-.29Zm2.65-.56.09.19-.18.09h-.1V60.3C324.87,60.17,324.93,60.11,325,60.11Z" transform="translate(0 -0.01)"/><path d="M349.37,53a21.58,21.58,0,0,1,7.22,3.87c1.87,1.53,2.75,2.55,2.62,3.07a6.08,6.08,0,0,1,.59,2.18l.12.37,0,.1q-.5.18-.54.39a2.61,2.61,0,0,0,.24.71c0,.2-.1.29-.17.26-.48,3.1-.75,4.75-.79,4.94l-.14.52q-1.25,2.22-1.95,2a7.93,7.93,0,0,1-1,1l-.21-.07c-.29-.11-.54-1-.75-2.77a15,15,0,0,0-10.9-9.8l-.79-.21a10.94,10.94,0,0,0-4-.21l-.12.4A25.08,25.08,0,0,0,344.42,65a33.62,33.62,0,0,1,8.14,9q2.31,3.78,1.85,5.53l-.19.7q-.83,3-7,7a33.42,33.42,0,0,1-3.28,1.35c-.19.27-1.13.48-2.84.64l-1.05.26c0,.07-.06.1-.12.07l-.09,0-.19-.14c0,.06-.06.09-.12.07l.05.24,0,.09-.22-.05a.91.91,0,0,1-.37-.21,1.79,1.79,0,0,0-.91.19l-.1,0a1.58,1.58,0,0,0-.68-.61,1.09,1.09,0,0,1-.33,0l.05.23c-.05.13-.16.17-.35.12l0,.23a5.3,5.3,0,0,1-1.47-.09l-.43-.42-.18,0-.07.19c.26.11.37.24.32.4a.18.18,0,0,1-.25.16l-.1,0c-.09-.32-.39-.54-.89-.68-.09.33-.58.41-1.45.25l.05-.21.18.07.1-.3-.61-.16c-.06.26-.3.34-.71.23l-.84-.45a.75.75,0,0,1-.42,0,.7.7,0,0,0-.52-.56.17.17,0,0,1-.23.14l-.63-.91c0,.09-.14.17-.38.23.05-.14,0-.22-.14-.25a1,1,0,0,1-.33,0,9.14,9.14,0,0,0-1.78-2.2,10.67,10.67,0,0,1-1.94-4.29l-.24,0c-.15,0-.2-.65-.14-1.85l.14-.19a4.74,4.74,0,0,1,.05-.93l.16-.19a15.07,15.07,0,0,0,.19-2l.16-.19.14-1.36c.15.05.23,0,.26-.14l0-.42a7,7,0,0,0,.3-.77c-.08,0-.21-.45-.4-1.29l.05-.21.28-.24c-.09,0-.16-.15-.21-.37l.21,0,.42.42,0-.09-.12-.35.23,0c.05.34.14.55.26.61l.12-.4a1,1,0,0,1-.17-.58l.14-.19a1.18,1.18,0,0,1-.07-.54l.24,0,.61.17.65,1.12.24-.05q1.17.78,1.31,6.26l.73,2.89a6,6,0,0,0,4.36,3.42,12.1,12.1,0,0,0,5.29.23c3.85-.73,6-2,6.5-3.82l.16-.61q.82-3.09-7.59-9.65-3.62-3.37-3.68-3.57a9,9,0,0,1-2.3-5.43c.16-.75.19-1.14.09-1.15l.24-.49.19-.71a6.32,6.32,0,0,1,4.52-4.78c.09-.37,1.65-.71,4.66-1A24.41,24.41,0,0,1,349.37,53ZM324.1,79.19l-.21.37,0,.1.09,0,.21-.37,0-.1Zm.14.68,0,.21c0,.09.06.26.28.49l0-.09C324.46,80.13,324.37,79.93,324.24,79.87Zm1,3.16a2.42,2.42,0,0,0,.65,1.15l0-.12c0-.07-.17-.41-.59-1Zm2.27-11.74,0,.12c0,.14,0,.22.14.23l.09-.28Zm.21.49-.09.31.21,0,.07-.3Zm6.42,16.85,0,.22.4.09c0-.13,0-.21-.17-.26Zm2.68.83.09,0c.09,0,.17.16.23.4l-.23,0c-.14,0-.19-.13-.14-.25Zm3.79-.59,0,.21.09,0a.19.19,0,0,0,.26-.16Z" transform="translate(0 -0.01)"/></g><g class="cls-2"><path d="M167.18,108.61a6.8,6.8,0,0,0,.7.12l.94-.12c.7.08,1.14.12,1.31.12l.59-.12q5.9,0,14.81,4.24a72.7,72.7,0,0,1,7.33,4.27q3.33,2.63,3.33,5.93h-.11l.11.23a.87.87,0,0,0-.11.35l.11.26a12,12,0,0,1-2,5.21q-3.7,4.26-4.27,4.26a37.85,37.85,0,0,1-9.58,6.4,22.3,22.3,0,0,1-4.74,2c-.09.2-.65.35-1.66.46v-.11A83.51,83.51,0,0,0,160.17,147a17.13,17.13,0,0,1-3.07.84c-.11.33-.46.6-1.06.82-.17,0-.25-.08-.25-.23a2.83,2.83,0,0,0-1.18.35c-.12,0-.24-.16-.35-.47l-.23.12h-.12l-.49-.35-.35.23H153c-.16,0-.23-.19-.23-.58h-.12l-.47.35-.23-.12-.73.12-.47-.24a.94.94,0,0,1-.47.12c0-.13-.15-.29-.47-.49l-.72.61h-.36c-.1,0-.22-.12-.35-.35v-.15a5.31,5.31,0,0,1,1.78-2l-.11-1.43v-.58c-.16,0-.24.09-.24.23v.59l.12.58-.23.12c-.25,0-.42-.43-.5-1.29q0-2.16,9.73-15.77,2.28-4.17,6.4-10.76a24.94,24.94,0,0,0,2.48-4.27l-3.21-2.25c-.62-.37-.94-.61-.94-.72v-.24c0-.15,1-.5,3-1Zm9.58,8.27a70.3,70.3,0,0,1-3.79,8.77,89,89,0,0,0-5,7.83,31.93,31.93,0,0,0-4.62,5.32h.23q13.6-5.34,19-10.17c2.6-2.14,3.91-4,3.91-5.46-.49-1.5-1.08-2.25-1.78-2.25Q178.26,116.89,176.76,116.88Z" transform="translate(0 -0.01)"/><path d="M235.87,108.54H236a1,1,0,0,1,1,.73c.56,0,.84.52.84,1.57-.64,1.73-1.39,4.33-2.27,7.8q-3.14,8.07-3.14,8.53a2.87,2.87,0,0,1-.47,1l.12.61c-.19,0-.47.79-.85,2.28a61.62,61.62,0,0,0-2.15,6.72,14.73,14.73,0,0,0-1.22,3.61q-4.42,12.33-7.57,17.18a15.73,15.73,0,0,0-2.39,7.95l-.26.12a25,25,0,0,1-3-3.38,3,3,0,0,0-.23-1.55c.07-.68.11-1.25.11-1.68l-.23-.36v-.49l.23-.84-.23-.12.12-.61v-.47h-.12a20.38,20.38,0,0,0-1.34,4.46v.84h-.11c-.11,0-.39-.52-.85-1.57-.11,0-.22-.12-.35-.37v-1q0-3.77,4.81-16.1a1.73,1.73,0,0,0,.37-1.19c-4.22.64-7.62,1-10.22,1.19l-3.72,2.89a11.3,11.3,0,0,1-4.22,2.53h-1a5.35,5.35,0,0,1-3.24-2.16,2.15,2.15,0,0,0-1-1.57l-.26-.84v-.73q.31-2.34,6.61-7.69l.85-2.51a7.44,7.44,0,0,1,2.41-.37l6.12-6.26q3.51-3.83,6.14-6.47c.42,0,1.06-.52,1.92-1.57h.12l.11.24-.11.49c.14.47.26.7.37.7a15.48,15.48,0,0,0,2.63-1.43h.37l.35.24c.52,0,1.92-1,4.22-3.12.42-.45,1.58-.77,3.47-1H229c0,.19.32.38,1,.58a10.61,10.61,0,0,1-1.57,4.58l-.35,1.21h.47l1.33-3h.24a17.54,17.54,0,0,1-1.2,3.49v.24c.25,0,.81-1.25,1.67-3.61l2-6h.26v.23a3,3,0,0,1-.37,1.08l.11.49-.11.85V115h.11L234,111v-.12h.23l.38.23v-.23l-.14-.61.26-.12c.15,0,.23.16.23.47H235l.23-.12.12.24q1-.08,1-1v-.47l-.47-.61Zm-18.28,23.67a.9.9,0,0,0,.38.12c2.32,0,3.49-.23,3.49-.7,2.61-5.92,4.61-9.5,6-10.71a.81.81,0,0,1,.23-.47v-.38q-.63.41-8,9.14a26.15,26.15,0,0,0-2.18,3Zm17.93-24,.12.23-.26.12h-.12v-.12A.25.25,0,0,1,235.52,108.19Z" transform="translate(0 -0.01)"/><path d="M264.47,108.61a19.26,19.26,0,0,0,2.41.35,1.84,1.84,0,0,1,.91-.23h.1a3.09,3.09,0,0,0,2.06.8,5.2,5.2,0,0,1,2.74,2.06.74.74,0,0,1,.12.33,8.28,8.28,0,0,1-3.09.91,25.6,25.6,0,0,0-6.61,3.54,33.55,33.55,0,0,0-5.72,6.73l-2.28,3.32h.36a26.5,26.5,0,0,1,3.42-1.38,12.33,12.33,0,0,1,2.15-.8,5.49,5.49,0,0,1,1.72-.79c0-.24.3-.39.91-.45,0,.11.12.22.35.33,0-.16.09-.23.24-.23a19.06,19.06,0,0,0,4.45.82c0,.12,2.69.43,8.08.91v.09a.75.75,0,0,1-.32.12h-1.15v.12c.61,0,.91,0,.91.12a.11.11,0,0,0,.12-.12l.8.12h.56v.23a2.62,2.62,0,0,0-1,.33V126c.84.14,1.26.33,1.26.58l-.47.68c.39,0,.59.16.59.33a1.13,1.13,0,0,1-.59.12l.71.58a2.06,2.06,0,0,1-.8.1v.11c.53.07.8.18.8.35l-.24.12-1-.12q-1.17.12-1.83.12v-.12a18.92,18.92,0,0,1-3.86.92c-.27.53-.61.8-1,.8a16.43,16.43,0,0,1-2.85,1.35,18.31,18.31,0,0,0-1.72,3.45c-1.59,2.38-2.54,3.85-2.85,4.43-.13,0-.32.23-.57.7l-1.94,1.83c0,.27-.53.88-1.6,1.83h-.11a2.22,2.22,0,0,1,.79-1.5v-.12h-.23q0,.5-3.07,3.1c-.3,0-.56.43-.8,1.24-.39.39-.65.58-.8.58v.24a14.61,14.61,0,0,0-.35,1.8h-.23v-.79a9.41,9.41,0,0,1,.7-1.71v-.12h-.23a3.1,3.1,0,0,0-.92,1.94.94.94,0,0,1,.12.35l-.23.12-.45-.7v.23a5.76,5.76,0,0,0,.21,1.15l-.44.35h-.24a5.67,5.67,0,0,1-1.24-1.26.83.83,0,0,1-.35.11q0-.25-1.71-1.38c-.58.69-1.68,1-3.31,1a22,22,0,0,1-5.36-1.47,18.12,18.12,0,0,1-3.9-3.54,11,11,0,0,1-1.59-5.49q.94-7.72,9.35-17.9a9.12,9.12,0,0,0,1.83-1.83,56.94,56.94,0,0,1,12.8-9.14C258.89,109.11,260.75,108.85,264.47,108.61Zm-11.86,21a9.51,9.51,0,0,1-1.48,1.83,61.83,61.83,0,0,0-5,8.79h.24q1.17-.16,8.67-7.76a22.73,22.73,0,0,0,1.47-1.83c0-.08,0-.11-.09-.11a15.6,15.6,0,0,0-3.77-1Z" transform="translate(0 -0.01)"/></g></svg>