<svg id="Lag_1" data-name="Lag 1" xmlns="http://www.w3.org/2000/svg" viewBox="0 0 462.51 219.76"><defs><style>.cls-1{fill:#fff;}.cls-2{font-size:48px;font-family:PaintedLady, Painted Lady;}</style></defs><title>kroppensdag</title><path class="cls-1" d="M387.08,187.43c-5.12.86-2.92,7.72-10.15,9.85-3.72,0-10.21.37-16.64-.1a46.91,46.91,0,0,0-21.56,3.49,39.57,39.57,0,0,1-27.5,1.54c-4.48-1.31-10.18,4.76-14.6-1.48-3.28,3.67-6.69,4.53-11.27,1.71-3.62-2.24-7.83,4.05-10.75,1.19-4.27-4.18-7.09.76-10.62.32-4-.5-7.39-3.43-12.25-.47-3.2,1.94-8.56,0-12.89.46-4.59.49-9.52-1.94-14,2.24-.88.83-5.73-2.94-9.56-2.43-3.22.44-6.55,0-9.83.11-3.66.1-7.75-1.11-10.21,3-2.35-3.27-4.66-2.79-7,.06-2.51-4.77-4.75-.21-7.2,0-6,.51-12.2,1.07-18-.1-5.35-1.07-9.79,4.89-15.54.48-3.89-3-7.15,3.86-11.55,3.08l-3.55-3.31c-17.07,5.66-35.42,5.95-52.51,12.32-2-3.07-7.77-1.29-9.3-5.83-10.43,4.86-10.43,4.86-36.17-6.47-3.25-2.85-2.53-7.64-4.41-8.81-3-7,5.33-8.33,2.31-12.87,22.27-5.5,41.15-17.28,63.24-21.67-3.8-3.91-8.51-3.19-11.05-7.55-8.47,6.71-19.22,3.41-26.43,10.5-10.06-1.9-16.25,9.68-27.1,7.42L19.84,185.36C12.39,181,11.92,170.52,0,171.43c9.32-6.55,10.25-15.28,18.65-19.86l9.23-.51,5.9-5.9c11.61-.43,20.48-3,28.64-8.69l-42.79-36c6.41-7.66,7-16.73,8.14-28.16,2.24-3.19,6.56-7.53,12.38-6.79L27.62,53c13.6-13.79,29.26-17.18,44.92-19.67A82.58,82.58,0,0,0,100.89,23.3C110.5,25.77,120.16,17.38,131,20c-.25-3.23,2-3.25,4.22-3.28,11.09-.16,22.15.55,33.08-3,3.38-1.1,7.09-4.54,12.22-.73a8.13,8.13,0,0,0,12.13-4.13l7,5.2c4.88-6.22,13.27-1.4,18.58-4.81,5-3.22,6.89,2.65,10.92,1.13,3.26-1.22,5.61-4.77,10-3.72,2.45.59,3.43,2.32,4.77,3.18,10.87-7.89,24.84,2.41,35-6.79l5.45,3.81c5.1-1,10.11-7.33,15.38-.31,4.83-4.71,10.94-2.3,16.5-3s12,2.65,16.59-3.19c1.2,1.07,2.24,2.47,3.62,3.17,4,2,7.68-3.38,10.94-1.49,4.6,2.66,7.76,2.32,11.4-1.19a4.78,4.78,0,0,1,4.55-.43c6.5,4.59,13.47-3.49,19.81,1a23.34,23.34,0,0,1,2.32,2.14c3.9-4.29,7.35-3.44,12.57-1.18,3.28,1.41,8.91-5.08,13.25.9,4.1-4.81,7.84,2.34,11.85.36a5.09,5.09,0,0,1,1.71,3.7,5.07,5.07,0,0,1-4,4.32,8.36,8.36,0,0,1-2.49.06,5.26,5.26,0,0,0,2.41.26c3.13.25,4,3,5.61,4.79.38.92.75,1.84,1.27,3.15l4.15-3.35,4.67,4.73c-2.94,3.89-6.93.33-9.73,3.32V33c11-.77,20.48,3.55,29.19,10,.51,4,4.82,5.18,6.49,8.73l-5.74,2c-.71,2.72,3.84,3.39,2.33,6.8-2.18,2.91-8.07,3.15-8,8.79-2.86-4.69-7.45-3.11-11.53-3.32-2.56,2.6-5.87,1.18-8.69,1.64,2.82.46,6.13-1,8.69,1.64,4.67,0,2.38,3.4,3.5,4.73-3.69,3.59-5.59,1.47-7.7-.73-2.44-1.13-2.61,2.53-4.54,2.56a55.23,55.23,0,0,0-18.24,2.82c-5.3,1.86-11.87,3.52-18.26.72-1.9-.83-6.74-2.39-7.29,3a5.9,5.9,0,0,1-3.5,1.53c-2.33.09-4.69,0-6.84.09.21,0-.41,0-.41,0s.75,0,1,0c1.81.12,3.44.06,5.08.31l1.43,1.34c-.16,3.34,3.33,4,4.69,6.56,4.27,0,10.48-1.77,12.52.39,3.71,3.93,7.79-1.5,11.49,2.51,2,2.21,9.85-1.16,12.22,1,3.72,3.43,8.54,1,11.52,4.12,2.83,6.75-7.81,3-6.54,8.62,1.27,4.85,9.12,2.52,9.38,8.53-2.26,2.42-5.24,0-7.81,1.53-1.15,5.1-5.55,8.32-9.17,12.11-.39,0-1,.1-1.13-.09-1.76-2.58-5.11-4-7-2.47-7.59,6.1-17.95.18-26,5.69L385.62,132c-19.89,4.32-39.4,8.61-59,12.63-1,.2-2.39-2-3.6-3-1.12,1-2.32,3-3.47,3-15.87-.34-30.5,7-46.24,7.31-.41,0-.78,1.75-1.16,2.68a11,11,0,0,1-9.17,2.17c.07.06-1.13.95-1.08.92a5.44,5.44,0,0,1,2.94,0,13.74,13.74,0,0,0,4.57-1,2.08,2.08,0,0,1,2.74,1.24c2.81-.63,3.08,2.76,4,2.86,4.53,1.62,5.65-1.84,8.48-3.11,3.56-.47,7.29,7.62,11.63.74,4,2.08,7.21,4.74,12.58,1.25,2.69-1.75,7.94,2.13,12.51,1.65,4.84-.51,9.77-.11,14.66-.11h42.82c2,2,3.17,3.17,4.92,4.92,0,3.67-.13,7.94.06,12.2a2.52,2.52,0,0,0,3.22,2.57C389.06,183.05,388.89,185.24,387.08,187.43Z"/><path class="cls-1" d="M265.62,161.17c-3.49-.48-5.66-4.89-9.85-3.28-.21-2.92,1.69-3.29,3.93-3.29,4.16,0,8.32,0,12.49,0v3.29H268.9C267.82,159,266.6,160,265.62,161.17Z"/><path class="cls-1" d="M419.91,10.16c2.27.09,3.37-1,3.28-3.28l1.6-1.36,2,.68a6.58,6.58,0,0,1,1.67,3.72,5.82,5.82,0,0,1-2,3.53v3.28l-6.56-3.28q-1.62-1.09-1.08-2.19C419.19,10.53,419.55,10.16,419.91,10.16Z"/><path class="cls-1" d="M426.47,13.45V10.16a5.62,5.62,0,0,0,1.74-2.74l1.55-.54c2,.38,4.24-.92,6,1.1C434.12,12.24,431,14.06,426.47,13.45Z"/><path class="cls-1" d="M387.08,187.43v-6.57h6.45c-1.74,3.77-3,6.59-4.36,9.4C387.39,190.12,386.9,189,387.08,187.43Z"/><path class="cls-1" d="M439.61,69.25c-3.09-.4-6.38,1-10-1.5,3.18-2.85,6.81-1.36,10-1.78Z"/><path class="cls-1" d="M426.47,6.88h-3.28V3.6h3.28q1.26,1.1.84,2.19C427,6.52,426.75,6.88,426.47,6.88Z"/><path class="cls-1" d="M426.47,6.88V3.6c2.28-.09,3.37,1,3.29,3.28A2.15,2.15,0,0,1,426.47,6.88Z"/><path class="cls-1" d="M456,43a2.29,2.29,0,0,1,2-2.91c.25-.06,1,.71,1,1A2.29,2.29,0,0,1,456,43Z"/><path class="cls-1" d="M26,51.2c-1.08,1.53-2.18,1.53-3.25,0C23.79,49.67,24.89,49.67,26,51.2Z"/><path class="cls-1" d="M383.8,82.38h3.28c.09,2.27-1,3.37-3.28,3.29q-1.62-1.1-1.08-2.19C383.08,82.75,383.44,82.38,383.8,82.38Z"/><path class="cls-1" d="M32.57,120.13c1.07-1.53,2.17-1.53,3.24,0C34.74,121.66,33.64,121.66,32.57,120.13Z"/><path class="cls-1" d="M52.23,218.62c-1.08,1.52-2.17,1.52-3.25,0C50.06,217.09,51.15,217.09,52.23,218.62Z"/><path class="cls-1" d="M374,85.67c-2.72-.56-3.07,2.53-5.19,3l-4.51-4.51c2.81-3.15,6.52-1.26,9.7-1.79q1.62,1.09,1.08,2.19C374.67,85.3,374.31,85.67,374,85.67Z"/><ellipse class="cls-1" cx="378.88" cy="84.02" rx="6.96" ry="2.32"/><path class="cls-1" d="M419.91,10.16v3.29c-2-.4-4.3,1-6.11-1.19C414.73,8.44,417.9,10.86,419.91,10.16Z"/><path class="cls-1" d="M131,20A2.28,2.28,0,0,1,134,22c.06.25-.71,1-1,1A2.29,2.29,0,0,1,131,20Z"/><path class="cls-1" d="M137.62,21.65c1.07-1.53,2.16-1.53,3.23,0C139.78,23.18,138.69,23.18,137.62,21.65Z"/><path class="cls-1" d="M121.21,24.93c1.07-1.53,2.16-1.53,3.23,0C123.37,26.47,122.28,26.47,121.21,24.93Z"/><path class="cls-1" d="M255.76,157.9a2.29,2.29,0,0,1-1.94,2.91c-.26.06-1-.71-1-1A2.29,2.29,0,0,1,255.76,157.9Z"/><path class="cls-1" d="M265.62,161.17c-.08-2.27,1-3.37,3.28-3.28C269,160.16,267.89,161.25,265.62,161.17Z"/><path class="cls-1" d="M426.47,6.88h3.29c.08,2.27-1,3.37-3.29,3.28Z"/><text class="cls-2" transform="translate(63.08 89.76)">Kroppens </text><text class="cls-2" transform="translate(120.15 148.76)">DAG</text></svg>